<svg xmlns="http://www.w3.org/2000/svg" version="1.1" xmlns:xlink="http://www.w3.org/1999/xlink" xmlns:svgjs="http://svgjs.dev/svgjs" width="2000" height="2250" viewBox="0 0 2000 2250"><g transform="matrix(1,0,0,1,0,0)"><svg viewBox="0 0 320 360" data-background-color="#434343" preserveAspectRatio="xMidYMid meet" height="2250" width="2000" xmlns="http://www.w3.org/2000/svg" xmlns:xlink="http://www.w3.org/1999/xlink"><g id="tight-bounds" transform="matrix(1,0,0,1,0,0)"><svg viewBox="0 0 320 360" height="360" width="320"><g><svg></svg></g><g><svg viewBox="0 0 320 360" height="360" width="320"><g><path transform="translate(-25.80645,-5.80645) scale(10.32258,10.32258)" d="M18 33.5c8.55 0 15.5-6.95 15.5-15.5 0-8.55-6.95-15.5-15.5-15.5-8.55 0-15.5 6.95-15.5 15.5 0 8.55 6.95 15.5 15.5 15.5zM18.5 32.47v-1c7.04-0.26 12.71-5.93 12.97-12.97h1c-0.26 7.6-6.37 13.71-13.97 13.97zM18.5 3.53c7.6 0.26 13.71 6.37 13.97 13.97h-1c-0.26-7.04-5.93-12.71-12.97-12.97zM30.5 18c0 6.89-5.61 12.5-12.5 12.5-6.89 0-12.5-5.61-12.5-12.5 0-6.89 5.61-12.5 12.5-12.5 6.89 0 12.5 5.61 12.5 12.5zM17.5 3.53v1c-7.04 0.26-12.71 5.93-12.97 12.97h-1c0.26-7.6 6.37-13.71 13.97-13.97zM4.53 18.5c0.26 7.04 5.93 12.71 12.97 12.97v1c-7.6-0.26-13.71-6.37-13.97-13.97z" fill="#4204ae" fill-rule="nonzero" stroke="none" stroke-width="1" stroke-linecap="butt" stroke-linejoin="miter" stroke-miterlimit="10" stroke-dasharray="" stroke-dashoffset="0" font-family="none" font-weight="none" font-size="none" text-anchor="none" style="mix-blend-mode: normal" data-fill-palette-color="tertiary"></path></g><g transform="matrix(1,0,0,1,128.50759733949235,90)"><svg viewBox="0 0 62.98480532101528 180" height="180" width="62.98480532101528"><g><svg viewBox="0 0 62.98480532101528 180" height="180" width="62.98480532101528"><g><svg viewBox="0 0 112.56000000000002 321.6775839305461" height="180" width="62.98480532101528"><g transform="matrix(1,0,0,1,0,141.67758393054612)"><svg viewBox="0 0 112.56000000000002 180" height="180" width="112.56000000000002"><g id="textblocktransform"><svg viewBox="0 0 112.56000000000002 180" height="180" width="112.56000000000002" id="textblock"><g><svg viewBox="0 0 112.56000000000002 180" height="180" width="112.56000000000002"><g transform="matrix(1,0,0,1,0,0)"><svg width="112.56000000000002" viewBox="3.25 -37.5 23.45 37.5" height="180" data-palette-color="#ffffff"><path d="M3.25-37.5L21.1-37.5Q24.4-37.5 25.55-36.25L25.55-36.25Q26.7-35 26.7-31.3L26.7-31.3 26.7-27.65Q26.7-24.8 25.5-23.5L25.5-23.5Q24.9-22.85 23.93-22.25 22.95-21.65 21.55-20.8L21.55-20.8 10.5-13.9 10.5-3.4 13.75-3.4 13.75 0 3.25 0 3.25-3.4 6.4-3.4 6.4-34.05 3.25-34.05 3.25-37.5ZM23.05-25.65L23.05-34.05 10.5-34.05 10.5-17.9 23.05-25.65Z" opacity="1" transform="matrix(1,0,0,1,0,0)" fill="#ffffff" class="wordmark-text-0" data-fill-palette-color="primary" id="text-0"></path></svg></g></svg></g></svg></g></svg></g><g transform="matrix(1,0,0,1,21.498960000000004,0)"><svg viewBox="0 0 69.56208000000001 99.18390393054612" height="99.18390393054612" width="69.56208000000001"><g><svg xmlns="http://www.w3.org/2000/svg" xmlns:xlink="http://www.w3.org/1999/xlink" version="1.1" x="0" y="0" viewBox="18.439999999999998 5 63.120999999999995 90" enable-background="new 0 0 100 100" xml:space="preserve" height="99.18390393054612" width="69.56208000000001" class="icon-icon-0" data-fill-palette-color="accent" id="icon-0"><g fill="#ffffff" data-fill-palette-color="accent"><path fill="none" d="M76.609 57.975H23.391c-1.959 0-3.548 1.589-3.548 3.548l4.436 25.724c0 1.958 1.587 3.547 3.547 3.547h44.35c1.959 0 3.548-1.589 3.548-3.547l4.435-25.724C80.157 59.563 78.568 57.975 76.609 57.975zM50 76.045c-1.163 0-2.106-0.941-2.106-2.105 0-1.161 0.943-2.103 2.106-2.103 1.162 0 2.104 0.941 2.104 2.103C52.104 75.104 51.162 76.045 50 76.045z"></path><path d="M50 40.258c-5.964 0-10.892-6.464-11.684-14.858h-1.622C37.596 34.959 43.208 42.324 50 42.324S62.404 34.959 63.306 25.4h-1.621C60.893 33.794 55.964 40.258 50 40.258z" fill="#ffffff" data-fill-palette-color="accent"></path><path d="M76.609 56.572c0.133 0 0.263 0.01 0.393 0.02-0.77-8.259-7.158-14.888-15.307-16.021-0.03-0.004-0.063-0.007-0.094-0.012-0.248-0.032-0.498-0.062-0.751-0.085 0 0.026-0.008 0.052-0.009 0.077-0.003 0.074-0.017 0.145-0.025 0.221-0.046 0.417-0.171 0.824-0.366 1.215-1.313 3.307-5.563 9.574-8.065 13.129l-0.516-7.39c0.73-0.375 1.359-0.995 1.763-1.715 0.289-0.518 0.467-1.082 0.467-1.657 0 0-1.867 0.827-3.772 0.827-0.109 0-0.217-0.004-0.326-0.01-0.108 0.006-0.217 0.01-0.326 0.01-1.905 0-3.772-0.827-3.772-0.827 0 0.575 0.177 1.14 0.467 1.657 0.403 0.72 1.031 1.34 1.762 1.715l-0.516 7.39c-2.502-3.556-6.751-9.823-8.064-13.129-0.196-0.391-0.32-0.797-0.367-1.215-0.009-0.076-0.022-0.147-0.025-0.221-0.001-0.025-0.008-0.051-0.009-0.077-0.252 0.023-0.502 0.053-0.751 0.085-0.032 0.005-0.063 0.008-0.094 0.012-8.148 1.133-14.537 7.762-15.307 16.021 0.13-0.01 0.26-0.02 0.392-0.02H76.609z" fill="#ffffff" data-fill-palette-color="accent"></path><path d="M36.061 23.412h0.454 2.444 0.94 20.205 0.94 2.443 0.452c1.086 0 1.967-0.88 1.967-1.966 0-1.085-0.881-1.966-1.967-1.966h-0.535c0-5.224-2.991-9.746-7.353-11.958l-0.398 2.266-0.712 4.032c-0.088 0.499-0.521 0.85-1.01 0.85-0.06 0-0.12-0.005-0.18-0.017-0.56-0.099-0.933-0.631-0.833-1.19l0.783-4.443 0.484-2.75C53.71 5.507 52.866 5 51.901 5h-3.804c-0.964 0-1.807 0.507-2.283 1.269l0.485 2.75 0.783 4.443c0.099 0.56-0.274 1.092-0.833 1.19-0.06 0.011-0.12 0.017-0.179 0.017-0.49 0-0.924-0.351-1.011-0.85l-0.711-4.031-0.399-2.265c-4.362 2.21-7.351 6.733-7.351 11.957h-0.537c-1.085 0-1.965 0.881-1.965 1.966C34.096 22.532 34.975 23.412 36.061 23.412z" fill="#ffffff" data-fill-palette-color="accent"></path><path fill="#ffffff" d="M74.126 92.896H25.874c-0.581 0-1.052 0.471-1.052 1.052S25.292 95 25.874 95h48.252c0.581 0 1.053-0.471 1.053-1.052S74.707 92.896 74.126 92.896z" data-fill-palette-color="accent"></path><path fill="#ffffff" d="M77.002 56.592c-0.13-0.01-0.26-0.02-0.393-0.02H23.391c-0.132 0-0.262 0.01-0.392 0.02-2.547 0.201-4.559 2.333-4.559 4.931v0.12l0.021 0.118 4.417 25.615c0.068 2.67 2.261 4.82 4.947 4.82h44.35c2.686 0 4.88-2.15 4.948-4.82l4.417-25.615 0.021-0.118v-0.12C81.561 58.926 79.549 56.793 77.002 56.592zM75.723 87.246c0 1.958-1.589 3.547-3.548 3.547h-44.35c-1.959 0-3.547-1.589-3.547-3.547l-4.436-25.724c0-1.959 1.589-3.548 3.548-3.548h53.219c1.959 0 3.548 1.589 3.548 3.548L75.723 87.246z" data-fill-palette-color="accent"></path><circle fill="#ffffff" cx="50" cy="73.941" r="2.1" data-fill-palette-color="accent"></circle></g></svg></g></svg></g><g></g></svg></g></svg></g></svg></g></svg></g><defs></defs></svg><rect width="320" height="360" fill="none" stroke="none" visibility="hidden"></rect></g></svg></g></svg>